<?xml version="1.0" standalone="no"?><!DOCTYPE svg PUBLIC "-//W3C//DTD SVG 1.1//EN" "http://www.w3.org/Graphics/SVG/1.1/DTD/svg11.dtd"><svg t="1760096108381" class="icon" viewBox="0 0 1024 1024" version="1.1" xmlns="http://www.w3.org/2000/svg" p-id="2089" xmlns:xlink="http://www.w3.org/1999/xlink" width="32" height="32"><path d="M512 1024a512.568889 512.568889 0 0 1-512-512 512.625778 512.625778 0 0 1 512-512 512.568889 512.568889 0 0 1 512 512 512.568889 512.568889 0 0 1-512 512zM512 73.329778c-241.948444 0-438.670222 196.835556-438.670222 438.670222S270.051556 950.670222 512 950.670222s438.670222-196.835556 438.670222-438.670222S753.948444 73.329778 512 73.329778z m0 686.592a245.191111 245.191111 0 1 1 0-490.382222 245.191111 245.191111 0 0 1 0 490.382222z" fill="currentColor" p-id="2090"></path></svg>