<?xml version="1.0" standalone="no"?><!DOCTYPE svg PUBLIC "-//W3C//DTD SVG 1.1//EN" "http://www.w3.org/Graphics/SVG/1.1/DTD/svg11.dtd"><svg t="1760149580507" class="icon" viewBox="0 0 1083 1024" version="1.1" xmlns="http://www.w3.org/2000/svg" p-id="2040" xmlns:xlink="http://www.w3.org/1999/xlink" width="33.84375" height="32"><path d="M1069.468793 405.599677c-6.365886-33.648253-26.372955-54.564734-51.836497-53.655322h-4.547062a133.683599 133.683599 0 0 1-133.683599-133.683599 155.509493 155.509493 0 0 1 11.822359-50.927085 68.205918 68.205918 0 0 0-23.644718-82.756514L732.076852 8.186529H727.529791a69.11533 69.11533 0 0 0-25.463542-8.18471 75.481216 75.481216 0 0 0-53.655323 21.825894A191.885982 191.885982 0 0 1 545.647343 82.758333 191.885982 191.885982 0 0 1 436.517875 22.737125a75.481216 75.481216 0 0 0-53.655322-22.735306 69.11533 69.11533 0 0 0-27.282368 5.456473L214.621288 82.758333a68.205918 68.205918 0 0 0-22.735306 82.756513 152.781256 152.781256 0 0 1 11.82236 50.927086 133.683599 133.683599 0 0 1-136.411836 135.502423H62.749444c-25.463543 0-45.470612 20.916481-51.836497 53.655322A680.240355 680.240355 0 0 0 0 511.091497a690.243889 690.243889 0 0 0 10.912947 106.401232c6.365886 32.738841 26.372955 53.655322 50.927085 53.655322h5.456474a133.683599 133.683599 0 0 1 133.683599 133.683599 150.962432 150.962432 0 0 1-11.822359 50.927086 68.205918 68.205918 0 0 0 22.735306 82.756514l131.864774 73.662391a69.11533 69.11533 0 0 0 28.19178 5.456473 74.571804 74.571804 0 0 0 54.564734-22.735306 195.523631 195.523631 0 0 1 108.220057-62.749444 196.433044 196.433044 0 0 1 108.220056 63.658857 74.571804 74.571804 0 0 0 54.564734 23.644718 67.296506 67.296506 0 0 0 27.282368-5.456474H727.529791l136.411836-75.481215a68.205918 68.205918 0 0 0 22.735306-82.756514 150.962432 150.962432 0 0 1-11.822359-50.927086 133.683599 133.683599 0 0 1 133.683599-133.683599h5.456474c24.55413 0 44.5612-20.916481 50.927085-53.655322a678.42153 678.42153 0 0 0 10.912947-105.49182 712.069783 712.069783 0 0 0-10.912947-105.491819z m-62.749444 105.49182a588.389719 588.389719 0 0 1-9.094123 90.941224 208.255403 208.255403 0 0 0-191.885982 203.708342 218.258937 218.258937 0 0 0 12.731771 74.571803l-120.951828 67.296506a370.130781 370.130781 0 0 0-44.561199-38.195314 197.342456 197.342456 0 0 0-115.495355-45.470612 197.342456 197.342456 0 0 0-114.585942 45.470612 352.851949 352.851949 0 0 0-47.289436 40.923551l-116.404767-70.024743A218.258937 218.258937 0 0 0 272.823672 804.83165 208.255403 208.255403 0 0 0 82.756514 598.395072a584.75207 584.75207 0 0 1-9.094123-90.941224 590.208543 590.208543 0 0 1 9.094123-90.941224A208.255403 208.255403 0 0 0 272.823672 217.351344a218.258937 218.258937 0 0 0-15.460008-75.481216L383.771965 74.573622a371.949606 371.949606 0 0 0 46.380024 40.014139A198.251868 198.251868 0 0 0 545.647343 156.420724a199.16128 199.16128 0 0 0 109.129469-40.923551 382.862553 382.862553 0 0 0 46.380024-39.104726L818.471015 142.77954a219.16835 219.16835 0 0 0-15.460008 75.481216A208.255403 208.255403 0 0 0 1000.353463 424.697334a585.661482 585.661482 0 0 1 9.094122 90.941224z m0 0" fill="currentColor" p-id="2041"></path><path d="M538.372046 320.114927A190.97657 190.97657 0 1 0 727.529791 511.091497a190.97657 190.97657 0 0 0-190.97657-190.97657z m0 307.381337A116.404767 116.404767 0 1 1 654.776812 511.091497a117.314179 117.314179 0 0 1-116.404766 116.404767z m0 0" fill="currentColor" p-id="2042"></path></svg>